<?xml version="1.0" standalone="no"?>
<!DOCTYPE svg PUBLIC "-//W3C//DTD SVG 20010904//EN"
 "http://www.w3.org/TR/2001/REC-SVG-20010904/DTD/svg10.dtd">
<svg version="1.0" xmlns="http://www.w3.org/2000/svg"
 width="800.000000pt" height="209.000000pt" viewBox="0 0 800.000000 209.000000"
 preserveAspectRatio="xMidYMid meet">

<g transform="translate(0.000000,209.000000) scale(0.100000,-0.100000)"
fill="#000000" stroke="none">
<path d="M750 2069 c-466 -54 -710 -356 -738 -911 -28 -550 110 -880 433
-1038 283 -139 759 -128 1040 23 l60 32 3 499 c1 360 -1 503 -9 512 -9 11 -76
14 -348 14 -185 0 -342 -4 -349 -8 -9 -7 -12 -50 -10 -183 l3 -174 140 -5 140
-5 3 -193 c2 -176 1 -193 -15 -200 -10 -4 -90 -7 -178 -7 -155 0 -162 1 -223
29 -82 38 -160 121 -195 208 -44 110 -59 207 -59 378 0 297 62 464 208 562 93
63 143 73 349 72 159 -1 191 -4 272 -26 50 -14 96 -22 102 -19 6 4 28 80 49
169 45 186 46 178 -41 211 -151 56 -436 83 -637 60z"/>
<path d="M3507 1994 c-4 -4 -7 -436 -7 -959 0 -797 2 -954 14 -964 9 -8 74
-11 212 -9 l199 3 5 415 5 415 313 3 312 2 0 -408 c0 -304 3 -411 12 -420 17
-17 399 -17 416 0 9 9 12 235 12 954 0 518 -3 949 -6 958 -5 14 -33 16 -210
16 -191 0 -204 -1 -214 -19 -6 -13 -10 -145 -10 -360 l0 -341 -315 0 -315 0
-2 358 -3 357 -206 3 c-113 1 -208 -1 -212 -4z"/>
<path d="M6686 1984 c-3 -9 -6 -440 -6 -959 0 -791 2 -944 14 -954 9 -8 60
-11 157 -9 l144 3 10 47 10 47 52 -33 c158 -100 444 -131 612 -67 155 59 248
196 284 421 59 363 7 669 -138 815 -89 88 -191 125 -350 126 -110 0 -199 -16
-295 -55 l-60 -25 0 310 c0 195 -4 318 -10 330 -10 18 -23 19 -214 19 -177 0
-205 -2 -210 -16z m754 -924 c45 -23 71 -56 96 -125 15 -41 18 -80 18 -215 1
-193 -13 -256 -67 -308 -60 -58 -196 -63 -325 -13 l-47 19 -3 306 c-1 168 -1
306 0 306 2 0 35 11 73 25 91 32 198 34 255 5z"/>
<path d="M1930 1951 c-108 -33 -173 -119 -173 -226 0 -107 63 -190 169 -221
199 -58 369 141 278 324 -14 29 -41 64 -58 77 -62 47 -150 66 -216 46z"/>
<path d="M2567 1754 c-4 -4 -7 -91 -7 -194 l0 -186 -76 -18 c-42 -10 -92 -22
-110 -28 l-35 -9 3 -137 3 -137 107 -3 106 -3 5 -337 c3 -268 7 -348 20 -390
42 -142 139 -231 289 -267 86 -20 274 -19 358 3 l65 17 0 150 0 150 -112 5
c-93 4 -116 9 -140 26 -51 38 -53 47 -53 357 l0 287 149 0 c127 0 150 2 155
16 3 9 6 83 6 164 0 137 -2 150 -19 160 -11 5 -81 10 -155 10 l-136 0 -2 183
-3 182 -206 3 c-113 1 -208 -1 -212 -4z"/>
<path d="M1798 1379 c-17 -9 -18 -51 -18 -649 0 -567 2 -640 16 -654 13 -13
45 -16 199 -16 101 0 190 3 199 6 14 6 16 73 16 659 0 586 -2 653 -16 659 -27
10 -378 6 -396 -5z"/>
<path d="M5217 1374 c-10 -11 -8 -940 2 -1004 40 -242 185 -344 491 -343 117
0 147 4 223 27 48 14 119 42 157 61 75 38 69 40 84 -28 l7 -28 142 3 142 3 0
655 0 655 -210 0 -210 0 -5 -475 -5 -475 -45 -22 c-91 -44 -215 -51 -283 -16
-60 30 -62 44 -67 538 l-5 450 -206 3 c-113 1 -208 -1 -212 -4z"/>
</g>
</svg>
